<svg width="2176" height="140" viewBox="0 0 2176 140" fill="none" xmlns="http://www.w3.org/2000/svg">
<rect width="2176" height="140" rx="20" fill="white"/>
<path d="M101.762 41.5C101.762 36.6732 103.162 33.0065 105.962 30.5H107.326C106.503 31.3809 105.908 32.1292 105.543 32.7451C104.161 35.0654 103.473 37.9837 103.48 41.5C103.48 45.9115 104.526 49.3275 106.617 51.748L107.326 52.5H105.962C103.162 49.9648 101.762 46.2982 101.762 41.5ZM109.324 42.1338C109.324 40.68 109.704 39.4554 110.463 38.46C111.229 37.4645 112.153 36.9668 113.234 36.9668C114.352 36.9668 115.415 37.3714 116.425 38.1807V31.1123H118.101V47H116.36V45.8613C115.408 46.7852 114.323 47.2471 113.105 47.2471C112.017 47.2471 111.115 46.735 110.398 45.7109C109.682 44.6868 109.324 43.4945 109.324 42.1338ZM111.032 42.1123C111.032 43.4157 111.34 44.3717 111.956 44.9805C112.572 45.582 113.256 45.8828 114.008 45.8828C114.624 45.8828 115.168 45.6751 115.641 45.2598C116.12 44.8372 116.36 44.4362 116.36 44.0566V39.8457C116.36 39.5664 116.206 39.2835 115.898 38.9971C115.426 38.5602 114.882 38.3382 114.266 38.3311H114.223C113.872 38.3311 113.524 38.3991 113.181 38.5352C112.837 38.6641 112.497 38.8646 112.16 39.1367C111.824 39.4089 111.551 39.8027 111.344 40.3184C111.136 40.8268 111.032 41.4248 111.032 42.1123ZM120.668 42.0264C120.668 40.5726 121.108 39.348 121.989 38.3525C122.877 37.3571 123.916 36.8594 125.104 36.8594C125.541 36.8594 125.957 36.931 126.351 37.0742C126.752 37.2103 127.153 37.4395 127.554 37.7617C127.962 38.084 128.299 38.5674 128.563 39.2119C128.828 39.8564 128.982 40.6263 129.025 41.5215V42.1553H122.204C122.247 43.2581 122.584 44.1569 123.214 44.8516C123.844 45.5391 124.592 45.8828 125.459 45.8828C126.576 45.8828 127.69 45.4782 128.8 44.6689L128.939 46.1191C127.822 46.8639 126.662 47.2399 125.459 47.2471C124.062 47.2471 122.913 46.7314 122.011 45.7002C121.116 44.6618 120.668 43.4372 120.668 42.0264ZM122.312 40.9521H127.769C127.683 40.3792 127.525 39.8958 127.296 39.502C127.067 39.1009 126.809 38.818 126.522 38.6533C126.236 38.4814 125.978 38.3669 125.749 38.3096C125.527 38.2523 125.312 38.2236 125.104 38.2236C124.36 38.2236 123.744 38.5101 123.257 39.083C122.77 39.6559 122.455 40.279 122.312 40.9521ZM130.282 38.5029V37.2139H131.915V35.0332C131.915 33.6224 132.223 32.5768 132.839 31.8965C133.455 31.2161 134.128 30.876 134.858 30.876C135.195 30.876 135.628 30.9548 136.158 31.1123V32.6162C135.657 32.3512 135.224 32.2188 134.858 32.2188C134.507 32.2188 134.192 32.3691 133.913 32.6699C133.634 32.9707 133.494 33.4863 133.494 34.2168V37.2139H136.158V38.5029H133.559V47H131.915V38.5029H130.282ZM137.92 32.9385V31.0908H139.768V32.9385H137.92ZM138.006 47V37.2139H139.66V47H138.006ZM143.248 47V37.0957H144.849V38.6426C145.701 37.5397 146.771 36.9883 148.061 36.9883C148.605 36.9883 149.07 37.0706 149.457 37.2354C149.851 37.3929 150.148 37.5898 150.349 37.8262C150.556 38.0625 150.714 38.3597 150.821 38.7178C150.936 39.0758 151.007 39.3945 151.036 39.6738C151.065 39.9531 151.079 40.2826 151.079 40.6621V47H149.36V40.8232C149.36 40.5726 149.357 40.3757 149.35 40.2324C149.342 40.082 149.299 39.8708 149.221 39.5986C149.142 39.3265 149.031 39.1117 148.888 38.9541C148.752 38.7894 148.54 38.6462 148.254 38.5244C147.967 38.3955 147.617 38.3311 147.201 38.3311C146.421 38.3311 145.851 38.6605 145.493 39.3193C145.142 39.9782 144.967 40.7767 144.967 41.7148V47H143.248ZM153.604 42.0264C153.604 40.5726 154.044 39.348 154.925 38.3525C155.813 37.3571 156.851 36.8594 158.04 36.8594C158.477 36.8594 158.892 36.931 159.286 37.0742C159.687 37.2103 160.088 37.4395 160.489 37.7617C160.897 38.084 161.234 38.5674 161.499 39.2119C161.764 39.8564 161.918 40.6263 161.961 41.5215V42.1553H155.14C155.183 43.2581 155.519 44.1569 156.149 44.8516C156.78 45.5391 157.528 45.8828 158.395 45.8828C159.512 45.8828 160.625 45.4782 161.735 44.6689L161.875 46.1191C160.758 46.8639 159.598 47.2399 158.395 47.2471C156.998 47.2471 155.849 46.7314 154.946 45.7002C154.051 44.6618 153.604 43.4372 153.604 42.0264ZM155.247 40.9521H160.704C160.618 40.3792 160.461 39.8958 160.231 39.502C160.002 39.1009 159.744 38.818 159.458 38.6533C159.172 38.4814 158.914 38.3669 158.685 38.3096C158.463 38.2523 158.248 38.2236 158.04 38.2236C157.295 38.2236 156.679 38.5101 156.192 39.083C155.705 39.6559 155.39 40.279 155.247 40.9521ZM163.841 52.5C164.22 52.0918 164.525 51.748 164.754 51.4688C164.99 51.1895 165.316 50.7061 165.731 50.0186C166.154 49.3382 166.487 48.6471 166.73 47.9453C166.974 47.2435 167.192 46.3197 167.386 45.1738C167.586 44.028 167.687 42.8034 167.687 41.5C167.687 40.1393 167.576 38.8646 167.354 37.6758C167.139 36.487 166.91 35.5488 166.666 34.8613C166.423 34.1667 166.068 33.4648 165.603 32.7559C165.144 32.0469 164.829 31.5957 164.657 31.4023C164.493 31.209 164.22 30.9082 163.841 30.5H165.184C167.998 33.0208 169.405 36.6803 169.405 41.4785C169.405 46.3053 167.998 49.9792 165.184 52.5H163.841ZM552.771 41.5C552.771 36.6732 554.172 33.0065 556.972 30.5H558.336C557.512 31.3809 556.918 32.1292 556.553 32.7451C555.171 35.0654 554.483 37.9837 554.49 41.5C554.49 45.9115 555.536 49.3275 557.627 51.748L558.336 52.5H556.972C554.172 49.9648 552.771 46.2982 552.771 41.5ZM560.151 46.248L560.42 44.7549C560.449 44.7692 560.542 44.8265 560.699 44.9268C560.864 45.0199 560.986 45.0879 561.064 45.1309C561.15 45.1738 561.283 45.2419 561.462 45.335C561.648 45.4209 561.816 45.4889 561.967 45.5391C562.124 45.5892 562.303 45.6429 562.504 45.7002C562.712 45.7575 562.93 45.8005 563.159 45.8291C563.388 45.8506 563.625 45.8613 563.868 45.8613C564.599 45.8613 565.121 45.7074 565.437 45.3994C565.759 45.0843 565.92 44.737 565.92 44.3574C565.92 43.9922 565.787 43.6878 565.522 43.4443C565.257 43.2008 564.978 43.0361 564.685 42.9502C564.541 42.9072 564.215 42.8356 563.707 42.7354C563.199 42.6279 562.823 42.5384 562.579 42.4668C561.978 42.2734 561.444 41.9476 560.979 41.4893C560.52 41.0238 560.291 40.4473 560.291 39.7598C560.291 39.4232 560.341 39.1045 560.441 38.8037C560.542 38.5029 560.714 38.195 560.957 37.8799C561.201 37.5648 561.573 37.3177 562.074 37.1387C562.583 36.9525 563.188 36.8594 563.89 36.8594C564.942 36.8594 566.013 37.085 567.102 37.5361L566.865 38.9971C566.851 38.9827 566.765 38.9434 566.607 38.8789C566.457 38.8073 566.371 38.7643 566.35 38.75C566.328 38.7357 566.246 38.6999 566.103 38.6426C565.966 38.5853 565.87 38.5495 565.812 38.5352C565.762 38.5137 565.673 38.4779 565.544 38.4277C565.415 38.3776 565.311 38.349 565.232 38.3418C565.161 38.3346 565.053 38.3132 564.91 38.2773C564.774 38.2415 564.652 38.2201 564.545 38.2129C564.438 38.2057 564.309 38.1986 564.158 38.1914C564.015 38.1842 563.861 38.1807 563.696 38.1807C563.023 38.1807 562.547 38.3167 562.268 38.5889C561.988 38.861 561.849 39.1725 561.849 39.5234C561.849 40.0104 562.042 40.3613 562.429 40.5762C562.823 40.7839 563.37 40.9486 564.072 41.0703C564.774 41.1921 565.272 41.321 565.565 41.457C566.095 41.6934 566.547 42.0479 566.919 42.5205C567.291 42.986 567.478 43.5482 567.478 44.207C567.478 44.5436 567.427 44.873 567.327 45.1953C567.227 45.5176 567.055 45.8398 566.812 46.1621C566.568 46.4844 566.192 46.7458 565.684 46.9463C565.182 47.1468 564.584 47.2471 563.89 47.2471C562.601 47.2399 561.354 46.9069 560.151 46.248ZM568.734 42.0264C568.734 40.5726 569.175 39.348 570.056 38.3525C570.944 37.3571 571.982 36.8594 573.171 36.8594C573.608 36.8594 574.023 36.931 574.417 37.0742C574.818 37.2103 575.219 37.4395 575.62 37.7617C576.028 38.084 576.365 38.5674 576.63 39.2119C576.895 39.8564 577.049 40.6263 577.092 41.5215V42.1553H570.271C570.313 43.2581 570.65 44.1569 571.28 44.8516C571.91 45.5391 572.659 45.8828 573.525 45.8828C574.643 45.8828 575.756 45.4782 576.866 44.6689L577.006 46.1191C575.889 46.8639 574.729 47.2399 573.525 47.2471C572.129 47.2471 570.979 46.7314 570.077 45.7002C569.182 44.6618 568.734 43.4372 568.734 42.0264ZM570.378 40.9521H575.835C575.749 40.3792 575.591 39.8958 575.362 39.502C575.133 39.1009 574.875 38.818 574.589 38.6533C574.302 38.4814 574.045 38.3669 573.815 38.3096C573.593 38.2523 573.379 38.2236 573.171 38.2236C572.426 38.2236 571.81 38.5101 571.323 39.083C570.836 39.6559 570.521 40.279 570.378 40.9521ZM578.155 38.5029V37.2139H580.046V34.4424H581.582V37.2139H584.687V38.5029H581.582V43.917C581.582 45.1917 581.979 45.8291 582.774 45.8291C583.39 45.8291 584.035 45.5892 584.708 45.1094L585.062 46.4092C584.024 46.9678 582.939 47.2471 581.808 47.2471C580.604 47.2471 580.003 46.3053 580.003 44.4219V38.5029H578.155ZM585.922 42.7568V41.457H591.776V42.7568H585.922ZM594.666 34.0234V32.0576H596.643V34.0234H594.666ZM594.816 47V37.2139H596.46V47H594.816ZM600.059 47V37.0957H601.659V38.6426C602.511 37.5397 603.582 36.9883 604.871 36.9883C605.415 36.9883 605.881 37.0706 606.268 37.2354C606.661 37.3929 606.959 37.5898 607.159 37.8262C607.367 38.0625 607.524 38.3597 607.632 38.7178C607.746 39.0758 607.818 39.3945 607.847 39.6738C607.875 39.9531 607.89 40.2826 607.89 40.6621V47H606.171V40.8232C606.171 40.5726 606.167 40.3757 606.16 40.2324C606.153 40.082 606.11 39.8708 606.031 39.5986C605.952 39.3265 605.841 39.1117 605.698 38.9541C605.562 38.7894 605.351 38.6462 605.064 38.5244C604.778 38.3955 604.427 38.3311 604.012 38.3311C603.231 38.3311 602.662 38.6605 602.304 39.3193C601.953 39.9782 601.777 40.7767 601.777 41.7148V47H600.059ZM610.436 42.1338C610.436 40.68 610.815 39.4554 611.574 38.46C612.34 37.4645 613.264 36.9668 614.346 36.9668C615.463 36.9668 616.526 37.3714 617.536 38.1807V31.1123H619.212V47H617.472V45.8613C616.519 46.7852 615.434 47.2471 614.217 47.2471C613.128 47.2471 612.226 46.735 611.51 45.7109C610.794 44.6868 610.436 43.4945 610.436 42.1338ZM612.144 42.1123C612.144 43.4157 612.451 44.3717 613.067 44.9805C613.683 45.582 614.367 45.8828 615.119 45.8828C615.735 45.8828 616.279 45.6751 616.752 45.2598C617.232 44.8372 617.472 44.4362 617.472 44.0566V39.8457C617.472 39.5664 617.318 39.2835 617.01 38.9971C616.537 38.5602 615.993 38.3382 615.377 38.3311H615.334C614.983 38.3311 614.636 38.3991 614.292 38.5352C613.948 38.6641 613.608 38.8646 613.271 39.1367C612.935 39.4089 612.663 39.8027 612.455 40.3184C612.247 40.8268 612.144 41.4248 612.144 42.1123ZM622.789 44.3145V37.2139H624.508V44.583C624.522 45.0986 624.64 45.4674 624.862 45.6895C625.091 45.9043 625.557 46.0117 626.259 46.0117C627.018 46.0117 627.63 45.8112 628.096 45.4102C628.561 45.002 628.823 44.5329 628.88 44.0029C628.894 43.8597 628.901 43.6484 628.901 43.3691V37.2139H630.62V47H628.944V45.9473C627.949 46.8138 626.667 47.2471 625.099 47.2471C624.662 47.2471 624.286 47.1755 623.971 47.0322C623.663 46.8962 623.43 46.7386 623.272 46.5596C623.122 46.3805 623.007 46.1335 622.929 45.8184C622.85 45.5033 622.807 45.2562 622.8 45.0771C622.793 44.891 622.789 44.6367 622.789 44.3145ZM633.166 42.0908C633.166 40.7301 633.603 39.5199 634.477 38.46C635.357 37.3929 636.532 36.8594 638 36.8594C638.688 36.8594 639.257 36.9274 639.708 37.0635C640.166 37.1924 640.736 37.4466 641.416 37.8262L641.147 39.2764C640.431 38.8252 639.883 38.5459 639.504 38.4385C639.081 38.3239 638.573 38.2666 637.979 38.2666C636.983 38.2666 636.217 38.6462 635.68 39.4053C635.143 40.1572 634.874 41.0524 634.874 42.0908C634.874 43.1794 635.16 44.0745 635.733 44.7764C636.306 45.4782 637.048 45.8291 637.957 45.8291C639.103 45.8291 640.256 45.4352 641.416 44.6475L641.523 46.1191C640.363 46.8639 639.167 47.2399 637.936 47.2471C636.589 47.2471 635.458 46.7458 634.541 45.7432C633.624 44.7334 633.166 43.516 633.166 42.0908ZM642.565 38.5029V37.2139H644.456V34.4424H645.992V37.2139H649.097V38.5029H645.992V43.917C645.992 45.1917 646.39 45.8291 647.185 45.8291C647.8 45.8291 648.445 45.5892 649.118 45.1094L649.473 46.4092C648.434 46.9678 647.349 47.2471 646.218 47.2471C645.015 47.2471 644.413 46.3053 644.413 44.4219V38.5029H642.565ZM651.75 34.0234V32.0576H653.727V34.0234H651.75ZM651.9 47V37.2139H653.544V47H651.9ZM656.036 42.1338C656.036 40.6514 656.509 39.4017 657.454 38.3848C658.407 37.3678 659.542 36.8594 660.859 36.8594C662.242 36.8594 663.395 37.3929 664.318 38.46C665.242 39.5199 665.704 40.7516 665.704 42.1553C665.704 43.609 665.217 44.8229 664.243 45.7969C663.276 46.7637 662.148 47.2471 660.859 47.2471C659.57 47.2471 658.442 46.7601 657.476 45.7861C656.516 44.805 656.036 43.5876 656.036 42.1338ZM657.755 41.9189C657.755 43.208 658.066 44.182 658.689 44.8408C659.312 45.4997 660.036 45.8291 660.859 45.8291C661.683 45.8291 662.406 45.4961 663.029 44.8301C663.652 44.1641 663.964 43.1937 663.964 41.9189C663.964 40.6872 663.652 39.7633 663.029 39.1475C662.406 38.5316 661.683 38.2236 660.859 38.2236C660.05 38.2236 659.33 38.5316 658.7 39.1475C658.07 39.7633 657.755 40.6872 657.755 41.9189ZM668.143 47V37.0957H669.743V38.6426C670.595 37.5397 671.666 36.9883 672.955 36.9883C673.499 36.9883 673.965 37.0706 674.352 37.2354C674.745 37.3929 675.043 37.5898 675.243 37.8262C675.451 38.0625 675.608 38.3597 675.716 38.7178C675.83 39.0758 675.902 39.3945 675.931 39.6738C675.959 39.9531 675.974 40.2826 675.974 40.6621V47H674.255V40.8232C674.255 40.5726 674.251 40.3757 674.244 40.2324C674.237 40.082 674.194 39.8708 674.115 39.5986C674.036 39.3265 673.925 39.1117 673.782 38.9541C673.646 38.7894 673.435 38.6462 673.148 38.5244C672.862 38.3955 672.511 38.3311 672.096 38.3311C671.315 38.3311 670.746 38.6605 670.388 39.3193C670.037 39.9782 669.861 40.7767 669.861 41.7148V47H668.143ZM679.862 47V45.1523H681.71V46.6885L681.688 47L680.786 49.75H679.862L680.432 47H679.862ZM691.947 42.0264C691.947 40.5726 692.388 39.348 693.269 38.3525C694.157 37.3571 695.195 36.8594 696.384 36.8594C696.821 36.8594 697.236 36.931 697.63 37.0742C698.031 37.2103 698.432 37.4395 698.833 37.7617C699.241 38.084 699.578 38.5674 699.843 39.2119C700.108 39.8564 700.262 40.6263 700.305 41.5215V42.1553H693.483C693.526 43.2581 693.863 44.1569 694.493 44.8516C695.123 45.5391 695.872 45.8828 696.738 45.8828C697.855 45.8828 698.969 45.4782 700.079 44.6689L700.219 46.1191C699.102 46.8639 697.941 47.2399 696.738 47.2471C695.342 47.2471 694.192 46.7314 693.29 45.7002C692.395 44.6618 691.947 43.4372 691.947 42.0264ZM693.591 40.9521H699.048C698.962 40.3792 698.804 39.8958 698.575 39.502C698.346 39.1009 698.088 38.818 697.802 38.6533C697.515 38.4814 697.257 38.3669 697.028 38.3096C696.806 38.2523 696.591 38.2236 696.384 38.2236C695.639 38.2236 695.023 38.5101 694.536 39.083C694.049 39.6559 693.734 40.279 693.591 40.9521ZM702.754 51.2861V37.2139H704.397V38.2881C705.472 37.4215 706.689 36.9883 708.05 36.9883C709.06 36.9883 709.89 37.4967 710.542 38.5137C711.201 39.5234 711.53 40.7087 711.53 42.0693C711.53 43.5804 711.122 44.8229 710.306 45.7969C709.496 46.7637 708.54 47.2471 707.438 47.2471C706.349 47.2471 705.361 46.8281 704.473 45.9902V51.2861H702.754ZM704.473 44.2285C704.473 44.5508 704.68 44.9124 705.096 45.3135C705.511 45.7074 706.012 45.9043 706.6 45.9043C707.423 45.9043 708.161 45.5534 708.812 44.8516C709.464 44.1426 709.79 43.2295 709.79 42.1123C709.79 41.1169 709.511 40.2503 708.952 39.5127C708.401 38.7679 707.685 38.3955 706.804 38.3955C706.639 38.3955 706.481 38.4062 706.331 38.4277C706.188 38.4492 706.052 38.4886 705.923 38.5459C705.801 38.596 705.687 38.6462 705.579 38.6963C705.472 38.7464 705.368 38.8037 705.268 38.8682C705.174 38.9326 705.092 38.9971 705.021 39.0615C704.949 39.1188 704.877 39.1833 704.806 39.2549C704.741 39.3265 704.691 39.3874 704.655 39.4375C704.619 39.4805 704.58 39.5234 704.537 39.5664L704.473 39.6523V44.2285ZM712.927 46.248L713.195 44.7549C713.224 44.7692 713.317 44.8265 713.475 44.9268C713.639 45.0199 713.761 45.0879 713.84 45.1309C713.926 45.1738 714.058 45.2419 714.237 45.335C714.424 45.4209 714.592 45.4889 714.742 45.5391C714.9 45.5892 715.079 45.6429 715.279 45.7002C715.487 45.7575 715.705 45.8005 715.935 45.8291C716.164 45.8506 716.4 45.8613 716.644 45.8613C717.374 45.8613 717.897 45.7074 718.212 45.3994C718.534 45.0843 718.695 44.737 718.695 44.3574C718.695 43.9922 718.563 43.6878 718.298 43.4443C718.033 43.2008 717.754 43.0361 717.46 42.9502C717.317 42.9072 716.991 42.8356 716.482 42.7354C715.974 42.6279 715.598 42.5384 715.354 42.4668C714.753 42.2734 714.219 41.9476 713.754 41.4893C713.296 41.0238 713.066 40.4473 713.066 39.7598C713.066 39.4232 713.117 39.1045 713.217 38.8037C713.317 38.5029 713.489 38.195 713.732 37.8799C713.976 37.5648 714.348 37.3177 714.85 37.1387C715.358 36.9525 715.963 36.8594 716.665 36.8594C717.718 36.8594 718.788 37.085 719.877 37.5361L719.641 38.9971C719.626 38.9827 719.54 38.9434 719.383 38.8789C719.232 38.8073 719.146 38.7643 719.125 38.75C719.104 38.7357 719.021 38.6999 718.878 38.6426C718.742 38.5853 718.645 38.5495 718.588 38.5352C718.538 38.5137 718.448 38.4779 718.319 38.4277C718.19 38.3776 718.087 38.349 718.008 38.3418C717.936 38.3346 717.829 38.3132 717.686 38.2773C717.549 38.2415 717.428 38.2201 717.32 38.2129C717.213 38.2057 717.084 38.1986 716.934 38.1914C716.79 38.1842 716.636 38.1807 716.472 38.1807C715.799 38.1807 715.322 38.3167 715.043 38.5889C714.764 38.861 714.624 39.1725 714.624 39.5234C714.624 40.0104 714.817 40.3613 715.204 40.5762C715.598 40.7839 716.146 40.9486 716.848 41.0703C717.549 41.1921 718.047 41.321 718.341 41.457C718.871 41.6934 719.322 42.0479 719.694 42.5205C720.067 42.986 720.253 43.5482 720.253 44.207C720.253 44.5436 720.203 44.873 720.103 45.1953C720.002 45.5176 719.83 45.8398 719.587 46.1621C719.343 46.4844 718.967 46.7458 718.459 46.9463C717.958 47.1468 717.36 47.2471 716.665 47.2471C715.376 47.2399 714.13 46.9069 712.927 46.248ZM722.391 34.0234V32.0576H724.367V34.0234H722.391ZM722.541 47V37.2139H724.185V47H722.541ZM727.805 47V31.1123H729.448V47H727.805ZM731.94 42.1338C731.94 40.6514 732.413 39.4017 733.358 38.3848C734.311 37.3678 735.446 36.8594 736.764 36.8594C738.146 36.8594 739.299 37.3929 740.223 38.46C741.146 39.5199 741.608 40.7516 741.608 42.1553C741.608 43.609 741.121 44.8229 740.147 45.7969C739.181 46.7637 738.053 47.2471 736.764 47.2471C735.475 47.2471 734.347 46.7601 733.38 45.7861C732.42 44.805 731.94 43.5876 731.94 42.1338ZM733.659 41.9189C733.659 43.208 733.971 44.182 734.594 44.8408C735.217 45.4997 735.94 45.8291 736.764 45.8291C737.587 45.8291 738.311 45.4961 738.934 44.8301C739.557 44.1641 739.868 43.1937 739.868 41.9189C739.868 40.6872 739.557 39.7633 738.934 39.1475C738.311 38.5316 737.587 38.2236 736.764 38.2236C735.954 38.2236 735.235 38.5316 734.604 39.1475C733.974 39.7633 733.659 40.6872 733.659 41.9189ZM744.047 47V37.0957H745.647V38.6426C746.5 37.5397 747.57 36.9883 748.859 36.9883C749.404 36.9883 749.869 37.0706 750.256 37.2354C750.65 37.3929 750.947 37.5898 751.147 37.8262C751.355 38.0625 751.513 38.3597 751.62 38.7178C751.735 39.0758 751.806 39.3945 751.835 39.6738C751.864 39.9531 751.878 40.2826 751.878 40.6621V47H750.159V40.8232C750.159 40.5726 750.156 40.3757 750.148 40.2324C750.141 40.082 750.098 39.8708 750.02 39.5986C749.941 39.3265 749.83 39.1117 749.687 38.9541C749.55 38.7894 749.339 38.6462 749.053 38.5244C748.766 38.3955 748.415 38.3311 748 38.3311C747.219 38.3311 746.65 38.6605 746.292 39.3193C745.941 39.9782 745.766 40.7767 745.766 41.7148V47H744.047ZM753.865 42.7568V41.457H759.72V42.7568H753.865ZM762.609 34.0234V32.0576H764.586V34.0234H762.609ZM762.76 47V37.2139H764.403V47H762.76ZM768.002 47V37.0957H769.603V38.6426C770.455 37.5397 771.525 36.9883 772.814 36.9883C773.359 36.9883 773.824 37.0706 774.211 37.2354C774.605 37.3929 774.902 37.5898 775.103 37.8262C775.31 38.0625 775.468 38.3597 775.575 38.7178C775.69 39.0758 775.761 39.3945 775.79 39.6738C775.819 39.9531 775.833 40.2826 775.833 40.6621V47H774.114V40.8232C774.114 40.5726 774.111 40.3757 774.104 40.2324C774.096 40.082 774.053 39.8708 773.975 39.5986C773.896 39.3265 773.785 39.1117 773.642 38.9541C773.506 38.7894 773.294 38.6462 773.008 38.5244C772.721 38.3955 772.37 38.3311 771.955 38.3311C771.174 38.3311 770.605 38.6605 770.247 39.3193C769.896 39.9782 769.721 40.7767 769.721 41.7148V47H768.002ZM778.379 42.1338C778.379 40.68 778.758 39.4554 779.518 38.46C780.284 37.4645 781.208 36.9668 782.289 36.9668C783.406 36.9668 784.47 37.3714 785.479 38.1807V31.1123H787.155V47H785.415V45.8613C784.463 46.7852 783.378 47.2471 782.16 47.2471C781.072 47.2471 780.169 46.735 779.453 45.7109C778.737 44.6868 778.379 43.4945 778.379 42.1338ZM780.087 42.1123C780.087 43.4157 780.395 44.3717 781.011 44.9805C781.627 45.582 782.311 45.8828 783.062 45.8828C783.678 45.8828 784.223 45.6751 784.695 45.2598C785.175 44.8372 785.415 44.4362 785.415 44.0566V39.8457C785.415 39.5664 785.261 39.2835 784.953 38.9971C784.48 38.5602 783.936 38.3382 783.32 38.3311H783.277C782.926 38.3311 782.579 38.3991 782.235 38.5352C781.892 38.6641 781.551 38.8646 781.215 39.1367C780.878 39.4089 780.606 39.8027 780.398 40.3184C780.191 40.8268 780.087 41.4248 780.087 42.1123ZM790.732 44.3145V37.2139H792.451V44.583C792.465 45.0986 792.584 45.4674 792.806 45.6895C793.035 45.9043 793.5 46.0117 794.202 46.0117C794.961 46.0117 795.574 45.8112 796.039 45.4102C796.505 45.002 796.766 44.5329 796.823 44.0029C796.838 43.8597 796.845 43.6484 796.845 43.3691V37.2139H798.563V47H796.888V45.9473C795.892 46.8138 794.61 47.2471 793.042 47.2471C792.605 47.2471 792.229 47.1755 791.914 47.0322C791.606 46.8962 791.373 46.7386 791.216 46.5596C791.065 46.3805 790.951 46.1335 790.872 45.8184C790.793 45.5033 790.75 45.2562 790.743 45.0771C790.736 44.891 790.732 44.6367 790.732 44.3145ZM801.109 42.0908C801.109 40.7301 801.546 39.5199 802.42 38.46C803.301 37.3929 804.475 36.8594 805.943 36.8594C806.631 36.8594 807.2 36.9274 807.651 37.0635C808.11 37.1924 808.679 37.4466 809.359 37.8262L809.091 39.2764C808.375 38.8252 807.827 38.5459 807.447 38.4385C807.025 38.3239 806.516 38.2666 805.922 38.2666C804.926 38.2666 804.16 38.6462 803.623 39.4053C803.086 40.1572 802.817 41.0524 802.817 42.0908C802.817 43.1794 803.104 44.0745 803.677 44.7764C804.25 45.4782 804.991 45.8291 805.9 45.8291C807.046 45.8291 808.199 45.4352 809.359 44.6475L809.467 46.1191C808.307 46.8639 807.111 47.2399 805.879 47.2471C804.533 47.2471 803.401 46.7458 802.484 45.7432C801.568 44.7334 801.109 43.516 801.109 42.0908ZM810.509 38.5029V37.2139H812.399V34.4424H813.936V37.2139H817.04V38.5029H813.936V43.917C813.936 45.1917 814.333 45.8291 815.128 45.8291C815.744 45.8291 816.388 45.5892 817.062 45.1094L817.416 46.4092C816.378 46.9678 815.293 47.2471 814.161 47.2471C812.958 47.2471 812.356 46.3053 812.356 44.4219V38.5029H810.509ZM819.693 34.0234V32.0576H821.67V34.0234H819.693ZM819.844 47V37.2139H821.487V47H819.844ZM823.979 42.1338C823.979 40.6514 824.452 39.4017 825.397 38.3848C826.35 37.3678 827.485 36.8594 828.803 36.8594C830.185 36.8594 831.338 37.3929 832.262 38.46C833.186 39.5199 833.647 40.7516 833.647 42.1553C833.647 43.609 833.16 44.8229 832.187 45.7969C831.22 46.7637 830.092 47.2471 828.803 47.2471C827.514 47.2471 826.386 46.7601 825.419 45.7861C824.459 44.805 823.979 43.5876 823.979 42.1338ZM825.698 41.9189C825.698 43.208 826.01 44.182 826.633 44.8408C827.256 45.4997 827.979 45.8291 828.803 45.8291C829.626 45.8291 830.35 45.4961 830.973 44.8301C831.596 44.1641 831.907 43.1937 831.907 41.9189C831.907 40.6872 831.596 39.7633 830.973 39.1475C830.35 38.5316 829.626 38.2236 828.803 38.2236C827.993 38.2236 827.274 38.5316 826.644 39.1475C826.013 39.7633 825.698 40.6872 825.698 41.9189ZM836.086 47V37.0957H837.687V38.6426C838.539 37.5397 839.609 36.9883 840.898 36.9883C841.443 36.9883 841.908 37.0706 842.295 37.2354C842.689 37.3929 842.986 37.5898 843.187 37.8262C843.394 38.0625 843.552 38.3597 843.659 38.7178C843.774 39.0758 843.845 39.3945 843.874 39.6738C843.903 39.9531 843.917 40.2826 843.917 40.6621V47H842.198V40.8232C842.198 40.5726 842.195 40.3757 842.188 40.2324C842.18 40.082 842.137 39.8708 842.059 39.5986C841.98 39.3265 841.869 39.1117 841.726 38.9541C841.59 38.7894 841.378 38.6462 841.092 38.5244C840.805 38.3955 840.454 38.3311 840.039 38.3311C839.258 38.3311 838.689 38.6605 838.331 39.3193C837.98 39.9782 837.805 40.7767 837.805 41.7148V47H836.086ZM847.806 47V45.1523H849.653V46.6885L849.632 47L848.729 49.75H847.806L848.375 47H847.806ZM867.807 47.308C862.901 47.308 860.261 45.108 860.261 40.906C860.261 36.704 862.857 34.504 867.807 34.504H873.395V36.066H867.543C864.133 36.066 862.197 37.452 861.889 40.114H873.395V41.676H861.889C862.197 44.338 864.155 45.746 867.543 45.746H873.395V47.308H867.807ZM874.736 42.7568V41.457H880.591V42.7568H874.736ZM883.48 34.0234V32.0576H885.457V34.0234H883.48ZM883.631 47V37.2139H885.274V47H883.631ZM888.873 47V37.0957H890.474V38.6426C891.326 37.5397 892.396 36.9883 893.686 36.9883C894.23 36.9883 894.695 37.0706 895.082 37.2354C895.476 37.3929 895.773 37.5898 895.974 37.8262C896.181 38.0625 896.339 38.3597 896.446 38.7178C896.561 39.0758 896.632 39.3945 896.661 39.6738C896.69 39.9531 896.704 40.2826 896.704 40.6621V47H894.985V40.8232C894.985 40.5726 894.982 40.3757 894.975 40.2324C894.967 40.082 894.924 39.8708 894.846 39.5986C894.767 39.3265 894.656 39.1117 894.513 38.9541C894.377 38.7894 894.165 38.6462 893.879 38.5244C893.592 38.3955 893.242 38.3311 892.826 38.3311C892.046 38.3311 891.476 38.6605 891.118 39.3193C890.767 39.9782 890.592 40.7767 890.592 41.7148V47H888.873ZM899.25 42.1338C899.25 40.68 899.63 39.4554 900.389 38.46C901.155 37.4645 902.079 36.9668 903.16 36.9668C904.277 36.9668 905.341 37.3714 906.351 38.1807V31.1123H908.026V47H906.286V45.8613C905.334 46.7852 904.249 47.2471 903.031 47.2471C901.943 47.2471 901.04 46.735 900.324 45.7109C899.608 44.6868 899.25 43.4945 899.25 42.1338ZM900.958 42.1123C900.958 43.4157 901.266 44.3717 901.882 44.9805C902.498 45.582 903.182 45.8828 903.934 45.8828C904.549 45.8828 905.094 45.6751 905.566 45.2598C906.046 44.8372 906.286 44.4362 906.286 44.0566V39.8457C906.286 39.5664 906.132 39.2835 905.824 38.9971C905.352 38.5602 904.807 38.3382 904.191 38.3311H904.148C903.798 38.3311 903.45 38.3991 903.106 38.5352C902.763 38.6641 902.423 38.8646 902.086 39.1367C901.749 39.4089 901.477 39.8027 901.27 40.3184C901.062 40.8268 900.958 41.4248 900.958 42.1123ZM911.604 44.3145V37.2139H913.322V44.583C913.337 45.0986 913.455 45.4674 913.677 45.6895C913.906 45.9043 914.371 46.0117 915.073 46.0117C915.832 46.0117 916.445 45.8112 916.91 45.4102C917.376 45.002 917.637 44.5329 917.694 44.0029C917.709 43.8597 917.716 43.6484 917.716 43.3691V37.2139H919.435V47H917.759V45.9473C916.763 46.8138 915.481 47.2471 913.913 47.2471C913.476 47.2471 913.1 47.1755 912.785 47.0322C912.477 46.8962 912.244 46.7386 912.087 46.5596C911.937 46.3805 911.822 46.1335 911.743 45.8184C911.664 45.5033 911.621 45.2562 911.614 45.0771C911.607 44.891 911.604 44.6367 911.604 44.3145ZM921.98 42.0908C921.98 40.7301 922.417 39.5199 923.291 38.46C924.172 37.3929 925.346 36.8594 926.814 36.8594C927.502 36.8594 928.071 36.9274 928.522 37.0635C928.981 37.1924 929.55 37.4466 930.23 37.8262L929.962 39.2764C929.246 38.8252 928.698 38.5459 928.318 38.4385C927.896 38.3239 927.387 38.2666 926.793 38.2666C925.798 38.2666 925.031 38.6462 924.494 39.4053C923.957 40.1572 923.688 41.0524 923.688 42.0908C923.688 43.1794 923.975 44.0745 924.548 44.7764C925.121 45.4782 925.862 45.8291 926.771 45.8291C927.917 45.8291 929.07 45.4352 930.23 44.6475L930.338 46.1191C929.178 46.8639 927.982 47.2399 926.75 47.2471C925.404 47.2471 924.272 46.7458 923.355 45.7432C922.439 44.7334 921.98 43.516 921.98 42.0908ZM931.38 38.5029V37.2139H933.271V34.4424H934.807V37.2139H937.911V38.5029H934.807V43.917C934.807 45.1917 935.204 45.8291 935.999 45.8291C936.615 45.8291 937.259 45.5892 937.933 45.1094L938.287 46.4092C937.249 46.9678 936.164 47.2471 935.032 47.2471C933.829 47.2471 933.228 46.3053 933.228 44.4219V38.5029H931.38ZM940.564 34.0234V32.0576H942.541V34.0234H940.564ZM940.715 47V37.2139H942.358V47H940.715ZM944.851 42.1338C944.851 40.6514 945.323 39.4017 946.269 38.3848C947.221 37.3678 948.356 36.8594 949.674 36.8594C951.056 36.8594 952.209 37.3929 953.133 38.46C954.057 39.5199 954.519 40.7516 954.519 42.1553C954.519 43.609 954.032 44.8229 953.058 45.7969C952.091 46.7637 950.963 47.2471 949.674 47.2471C948.385 47.2471 947.257 46.7601 946.29 45.7861C945.33 44.805 944.851 43.5876 944.851 42.1338ZM946.569 41.9189C946.569 43.208 946.881 44.182 947.504 44.8408C948.127 45.4997 948.85 45.8291 949.674 45.8291C950.497 45.8291 951.221 45.4961 951.844 44.8301C952.467 44.1641 952.778 43.1937 952.778 41.9189C952.778 40.6872 952.467 39.7633 951.844 39.1475C951.221 38.5316 950.497 38.2236 949.674 38.2236C948.865 38.2236 948.145 38.5316 947.515 39.1475C946.884 39.7633 946.569 40.6872 946.569 41.9189ZM956.957 47V37.0957H958.558V38.6426C959.41 37.5397 960.48 36.9883 961.77 36.9883C962.314 36.9883 962.779 37.0706 963.166 37.2354C963.56 37.3929 963.857 37.5898 964.058 37.8262C964.265 38.0625 964.423 38.3597 964.53 38.7178C964.645 39.0758 964.716 39.3945 964.745 39.6738C964.774 39.9531 964.788 40.2826 964.788 40.6621V47H963.069V40.8232C963.069 40.5726 963.066 40.3757 963.059 40.2324C963.051 40.082 963.008 39.8708 962.93 39.5986C962.851 39.3265 962.74 39.1117 962.597 38.9541C962.461 38.7894 962.249 38.6462 961.963 38.5244C961.676 38.3955 961.326 38.3311 960.91 38.3311C960.13 38.3311 959.56 38.6605 959.202 39.3193C958.851 39.9782 958.676 40.7767 958.676 41.7148V47H956.957ZM967.774 52.5C968.154 52.0918 968.458 51.748 968.688 51.4688C968.924 51.1895 969.25 50.7061 969.665 50.0186C970.088 49.3382 970.421 48.6471 970.664 47.9453C970.908 47.2435 971.126 46.3197 971.319 45.1738C971.52 44.028 971.62 42.8034 971.62 41.5C971.62 40.1393 971.509 38.8646 971.287 37.6758C971.072 36.487 970.843 35.5488 970.6 34.8613C970.356 34.1667 970.002 33.4648 969.536 32.7559C969.078 32.0469 968.763 31.5957 968.591 31.4023C968.426 31.209 968.154 30.9082 967.774 30.5H969.117C971.932 33.0208 973.339 36.6803 973.339 41.4785C973.339 46.3053 971.932 49.9792 969.117 52.5H967.774Z" fill="black" fill-opacity="0.6"/>
<path d="M181.254 47L188.568 27.5723H191.057L198.344 47H195.76L193.6 41.2852H185.492L183.359 47H181.254ZM186.08 39.7266H193.012C190.806 33.6198 189.653 30.2201 189.553 29.5273C189.307 30.6667 188.149 34.0664 186.08 39.7266ZM199.178 47L204.605 40.6152V40.5605L199.342 34.5449H201.666L205.535 39.166H205.562L209.281 34.5449H211.605L206.451 40.5605V40.5879L212.057 47H209.732L205.535 41.7363L201.502 47H199.178ZM214.162 30.4844V27.9824H216.678V30.4844H214.162ZM214.354 47V34.5449H216.445V47H214.354ZM219.617 40.8066C219.617 38.9199 220.219 37.3294 221.422 36.0352C222.634 34.7409 224.079 34.0938 225.756 34.0938C227.515 34.0938 228.982 34.7728 230.158 36.1309C231.334 37.4798 231.922 39.0475 231.922 40.834C231.922 42.6842 231.302 44.2292 230.062 45.4688C228.832 46.6992 227.396 47.3145 225.756 47.3145C224.115 47.3145 222.68 46.6947 221.449 45.4551C220.228 44.2064 219.617 42.6569 219.617 40.8066ZM221.805 40.5332C221.805 42.1738 222.201 43.4134 222.994 44.252C223.787 45.0905 224.708 45.5098 225.756 45.5098C226.804 45.5098 227.725 45.0859 228.518 44.2383C229.311 43.3906 229.707 42.1556 229.707 40.5332C229.707 38.9655 229.311 37.7897 228.518 37.0059C227.725 36.222 226.804 35.8301 225.756 35.8301C224.726 35.8301 223.81 36.222 223.008 37.0059C222.206 37.7897 221.805 38.9655 221.805 40.5332ZM235.025 47V34.3945H237.062V36.3633C238.147 34.9596 239.51 34.2578 241.15 34.2578C242.964 34.2578 244.149 35.0143 244.705 36.5273C245.844 35.0143 247.257 34.2578 248.943 34.2578C249.654 34.2578 250.265 34.3763 250.775 34.6133C251.286 34.8411 251.664 35.11 251.91 35.4199C252.165 35.7298 252.361 36.1263 252.498 36.6094C252.644 37.0924 252.726 37.4889 252.744 37.7988C252.762 38.1087 252.771 38.487 252.771 38.9336V47H250.557V39.1387C250.557 39.1022 250.557 39.0475 250.557 38.9746C250.557 38.8926 250.538 38.7422 250.502 38.5234C250.465 38.2956 250.415 38.0859 250.352 37.8945C250.288 37.694 250.188 37.4753 250.051 37.2383C249.923 36.9922 249.764 36.7826 249.572 36.6094C249.39 36.4271 249.148 36.2767 248.848 36.1582C248.556 36.0306 248.223 35.9668 247.85 35.9668C246.856 35.9668 246.132 36.3861 245.676 37.2246C245.22 38.0632 244.992 39.0794 244.992 40.2734V47H242.805V39.1387C242.805 38.8197 242.8 38.569 242.791 38.3867C242.782 38.1953 242.727 37.9264 242.627 37.5801C242.527 37.2337 242.385 36.9603 242.203 36.7598C242.03 36.5501 241.761 36.3678 241.396 36.2129C241.032 36.0488 240.585 35.9668 240.057 35.9668C239.063 35.9668 238.339 36.3861 237.883 37.2246C237.436 38.0632 237.213 39.0794 237.213 40.2734V47H235.025ZM265.09 46.043L265.432 44.1426C265.468 44.1608 265.587 44.2337 265.787 44.3613C265.997 44.4798 266.152 44.5664 266.252 44.6211C266.361 44.6758 266.53 44.7624 266.758 44.8809C266.995 44.9902 267.209 45.0768 267.4 45.1406C267.601 45.2044 267.829 45.2728 268.084 45.3457C268.348 45.4186 268.626 45.4733 268.918 45.5098C269.21 45.5371 269.51 45.5508 269.82 45.5508C270.75 45.5508 271.415 45.3548 271.816 44.9629C272.227 44.5618 272.432 44.1198 272.432 43.6367C272.432 43.1719 272.263 42.7845 271.926 42.4746C271.589 42.1647 271.233 41.9551 270.859 41.8457C270.677 41.791 270.262 41.6999 269.615 41.5723C268.968 41.4355 268.49 41.3216 268.18 41.2305C267.414 40.9844 266.735 40.5697 266.143 39.9863C265.559 39.3939 265.268 38.6602 265.268 37.7852C265.268 37.3568 265.331 36.9512 265.459 36.5684C265.587 36.1855 265.805 35.7936 266.115 35.3926C266.425 34.9915 266.899 34.6771 267.537 34.4492C268.184 34.2122 268.954 34.0938 269.848 34.0938C271.188 34.0938 272.55 34.3809 273.936 34.9551L273.635 36.8145C273.617 36.7962 273.507 36.7461 273.307 36.6641C273.115 36.5729 273.006 36.5182 272.979 36.5C272.951 36.4818 272.846 36.4362 272.664 36.3633C272.491 36.2904 272.368 36.2448 272.295 36.2266C272.231 36.1992 272.117 36.1536 271.953 36.0898C271.789 36.026 271.657 35.9896 271.557 35.9805C271.465 35.9714 271.329 35.944 271.146 35.8984C270.973 35.8529 270.818 35.8255 270.682 35.8164C270.545 35.8073 270.381 35.7982 270.189 35.7891C270.007 35.7799 269.811 35.7754 269.602 35.7754C268.745 35.7754 268.139 35.9486 267.783 36.2949C267.428 36.6413 267.25 37.0378 267.25 37.4844C267.25 38.1042 267.496 38.5508 267.988 38.8242C268.49 39.0885 269.187 39.2982 270.08 39.4531C270.973 39.6081 271.607 39.7721 271.98 39.9453C272.655 40.2461 273.229 40.6973 273.703 41.2988C274.177 41.8913 274.414 42.6068 274.414 43.4453C274.414 43.8737 274.35 44.293 274.223 44.7031C274.095 45.1133 273.876 45.5234 273.566 45.9336C273.257 46.3438 272.778 46.6764 272.131 46.9316C271.493 47.1868 270.732 47.3145 269.848 47.3145C268.207 47.3053 266.621 46.8815 265.09 46.043ZM276.041 40.752C276.041 39.0202 276.597 37.4798 277.709 36.1309C278.83 34.7728 280.325 34.0938 282.193 34.0938C283.068 34.0938 283.793 34.1803 284.367 34.3535C284.951 34.5176 285.675 34.8411 286.541 35.3242L286.199 37.1699C285.288 36.5957 284.59 36.2402 284.107 36.1035C283.57 35.9577 282.923 35.8848 282.166 35.8848C280.899 35.8848 279.924 36.3678 279.24 37.334C278.557 38.291 278.215 39.4303 278.215 40.752C278.215 42.1374 278.579 43.2767 279.309 44.1699C280.038 45.0632 280.981 45.5098 282.139 45.5098C283.597 45.5098 285.064 45.0085 286.541 44.0059L286.678 45.8789C285.201 46.8268 283.679 47.3053 282.111 47.3145C280.398 47.3145 278.958 46.6764 277.791 45.4004C276.624 44.1152 276.041 42.5658 276.041 40.752ZM289.74 47V26.7793H291.832V36.2539C292.953 34.9323 294.298 34.2669 295.865 34.2578C296.576 34.2578 297.182 34.3717 297.684 34.5996C298.194 34.8184 298.572 35.0827 298.818 35.3926C299.074 35.7025 299.27 36.0944 299.406 36.5684C299.552 37.0423 299.639 37.4434 299.666 37.7715C299.693 38.0996 299.707 38.487 299.707 38.9336V47H297.52V39.1387C297.52 38.8197 297.515 38.569 297.506 38.3867C297.497 38.1953 297.442 37.9264 297.342 37.5801C297.242 37.2337 297.1 36.9603 296.918 36.7598C296.745 36.5501 296.476 36.3678 296.111 36.2129C295.747 36.0488 295.3 35.9668 294.771 35.9668C293.778 35.9668 293.053 36.3861 292.598 37.2246C292.151 38.0632 291.928 39.0794 291.928 40.2734V47H289.74ZM302.92 40.6699C302.92 38.8197 303.48 37.2611 304.602 35.9941C305.732 34.7272 307.053 34.0938 308.566 34.0938C309.122 34.0938 309.651 34.1849 310.152 34.3672C310.663 34.5404 311.173 34.832 311.684 35.2422C312.203 35.6523 312.632 36.2676 312.969 37.0879C313.306 37.9082 313.502 38.888 313.557 40.0273V40.834H304.875C304.93 42.2376 305.358 43.3815 306.16 44.2656C306.962 45.1406 307.915 45.5781 309.018 45.5781C310.439 45.5781 311.857 45.0632 313.27 44.0332L313.447 45.8789C312.025 46.8268 310.549 47.3053 309.018 47.3145C307.24 47.3145 305.777 46.6582 304.629 45.3457C303.49 44.0241 302.92 42.4655 302.92 40.6699ZM305.012 39.3027H311.957C311.848 38.5736 311.647 37.9583 311.355 37.457C311.064 36.9466 310.736 36.5866 310.371 36.377C310.007 36.1582 309.678 36.0124 309.387 35.9395C309.104 35.8665 308.831 35.8301 308.566 35.8301C307.618 35.8301 306.835 36.1947 306.215 36.9238C305.595 37.653 305.194 38.446 305.012 39.3027ZM316.646 47V34.3945H318.684V36.3633C319.768 34.9596 321.131 34.2578 322.771 34.2578C324.585 34.2578 325.77 35.0143 326.326 36.5273C327.465 35.0143 328.878 34.2578 330.564 34.2578C331.275 34.2578 331.886 34.3763 332.396 34.6133C332.907 34.8411 333.285 35.11 333.531 35.4199C333.786 35.7298 333.982 36.1263 334.119 36.6094C334.265 37.0924 334.347 37.4889 334.365 37.7988C334.383 38.1087 334.393 38.487 334.393 38.9336V47H332.178V39.1387C332.178 39.1022 332.178 39.0475 332.178 38.9746C332.178 38.8926 332.16 38.7422 332.123 38.5234C332.087 38.2956 332.036 38.0859 331.973 37.8945C331.909 37.694 331.809 37.4753 331.672 37.2383C331.544 36.9922 331.385 36.7826 331.193 36.6094C331.011 36.4271 330.77 36.2767 330.469 36.1582C330.177 36.0306 329.844 35.9668 329.471 35.9668C328.477 35.9668 327.753 36.3861 327.297 37.2246C326.841 38.0632 326.613 39.0794 326.613 40.2734V47H324.426V39.1387C324.426 38.8197 324.421 38.569 324.412 38.3867C324.403 38.1953 324.348 37.9264 324.248 37.5801C324.148 37.2337 324.007 36.9603 323.824 36.7598C323.651 36.5501 323.382 36.3678 323.018 36.2129C322.653 36.0488 322.206 35.9668 321.678 35.9668C320.684 35.9668 319.96 36.3861 319.504 37.2246C319.057 38.0632 318.834 39.0794 318.834 40.2734V47H316.646ZM337.865 43.8418C337.865 43.1491 338.125 42.5475 338.645 42.0371C339.173 41.5176 339.861 41.1348 340.709 40.8887C341.557 40.6335 342.386 40.4466 343.197 40.3281C344.008 40.2005 344.824 40.1367 345.645 40.1367V39.1934C345.608 37.9993 345.367 37.138 344.92 36.6094C344.455 36.0534 343.867 35.7754 343.156 35.7754C341.716 35.7754 340.317 36.2493 338.959 37.1973L338.795 35.3242C340.199 34.5039 341.661 34.0938 343.184 34.0938C344.469 34.0938 345.544 34.5176 346.41 35.3652C347.285 36.2129 347.759 37.2428 347.832 38.4551V47H345.713V46.0156C345.64 46.0885 345.467 46.2116 345.193 46.3848C344.92 46.5488 344.391 46.7448 343.607 46.9727C342.824 47.2005 341.976 47.3145 341.064 47.3145C339.998 47.3145 339.196 46.9362 338.658 46.1797C338.13 45.4232 337.865 44.6439 337.865 43.8418ZM339.916 43.8145C339.916 44.3158 340.162 44.735 340.654 45.0723C341.146 45.4095 341.766 45.5781 342.514 45.5781C343.316 45.5781 344.036 45.4095 344.674 45.0723C345.321 44.735 345.645 44.1654 345.645 43.3633V41.5996C345.07 41.5996 344.482 41.6361 343.881 41.709C343.288 41.7819 342.673 41.8958 342.035 42.0508C341.406 42.1966 340.896 42.4245 340.504 42.7344C340.112 43.0443 339.916 43.4043 339.916 43.8145ZM360.246 40.8066C360.246 38.9199 360.848 37.3294 362.051 36.0352C363.263 34.7409 364.708 34.0938 366.385 34.0938C368.144 34.0938 369.611 34.7728 370.787 36.1309C371.963 37.4798 372.551 39.0475 372.551 40.834C372.551 42.6842 371.931 44.2292 370.691 45.4688C369.461 46.6992 368.025 47.3145 366.385 47.3145C364.744 47.3145 363.309 46.6947 362.078 45.4551C360.857 44.2064 360.246 42.6569 360.246 40.8066ZM362.434 40.5332C362.434 42.1738 362.83 43.4134 363.623 44.252C364.416 45.0905 365.337 45.5098 366.385 45.5098C367.433 45.5098 368.354 45.0859 369.146 44.2383C369.939 43.3906 370.336 42.1556 370.336 40.5332C370.336 38.9655 369.939 37.7897 369.146 37.0059C368.354 36.222 367.433 35.8301 366.385 35.8301C365.355 35.8301 364.439 36.222 363.637 37.0059C362.835 37.7897 362.434 38.9655 362.434 40.5332ZM374.164 36.1855V34.5449H376.242V32.4941C376.242 32.4212 376.238 32.3118 376.229 32.166C376.219 32.0111 376.215 31.8971 376.215 31.8242C376.215 30.1107 376.684 28.7936 377.623 27.873C378.571 26.9434 379.669 26.4785 380.918 26.4785C381.611 26.4785 382.349 26.5788 383.133 26.7793V28.666C382.331 28.347 381.574 28.1875 380.863 28.1875C380.225 28.1875 379.628 28.3743 379.072 28.748C378.525 29.1217 378.252 29.7826 378.252 30.7305V34.5449H381.424V36.1855H378.334V47H376.242V36.1855H374.164ZM392.02 46.043L392.361 44.1426C392.398 44.1608 392.516 44.2337 392.717 44.3613C392.926 44.4798 393.081 44.5664 393.182 44.6211C393.291 44.6758 393.46 44.7624 393.688 44.8809C393.924 44.9902 394.139 45.0768 394.33 45.1406C394.531 45.2044 394.758 45.2728 395.014 45.3457C395.278 45.4186 395.556 45.4733 395.848 45.5098C396.139 45.5371 396.44 45.5508 396.75 45.5508C397.68 45.5508 398.345 45.3548 398.746 44.9629C399.156 44.5618 399.361 44.1198 399.361 43.6367C399.361 43.1719 399.193 42.7845 398.855 42.4746C398.518 42.1647 398.163 41.9551 397.789 41.8457C397.607 41.791 397.192 41.6999 396.545 41.5723C395.898 41.4355 395.419 41.3216 395.109 41.2305C394.344 40.9844 393.665 40.5697 393.072 39.9863C392.489 39.3939 392.197 38.6602 392.197 37.7852C392.197 37.3568 392.261 36.9512 392.389 36.5684C392.516 36.1855 392.735 35.7936 393.045 35.3926C393.355 34.9915 393.829 34.6771 394.467 34.4492C395.114 34.2122 395.884 34.0938 396.777 34.0938C398.117 34.0938 399.48 34.3809 400.865 34.9551L400.564 36.8145C400.546 36.7962 400.437 36.7461 400.236 36.6641C400.045 36.5729 399.936 36.5182 399.908 36.5C399.881 36.4818 399.776 36.4362 399.594 36.3633C399.421 36.2904 399.298 36.2448 399.225 36.2266C399.161 36.1992 399.047 36.1536 398.883 36.0898C398.719 36.026 398.587 35.9896 398.486 35.9805C398.395 35.9714 398.258 35.944 398.076 35.8984C397.903 35.8529 397.748 35.8255 397.611 35.8164C397.475 35.8073 397.311 35.7982 397.119 35.7891C396.937 35.7799 396.741 35.7754 396.531 35.7754C395.674 35.7754 395.068 35.9486 394.713 36.2949C394.357 36.6413 394.18 37.0378 394.18 37.4844C394.18 38.1042 394.426 38.5508 394.918 38.8242C395.419 39.0885 396.117 39.2982 397.01 39.4531C397.903 39.6081 398.536 39.7721 398.91 39.9453C399.585 40.2461 400.159 40.6973 400.633 41.2988C401.107 41.8913 401.344 42.6068 401.344 43.4453C401.344 43.8737 401.28 44.293 401.152 44.7031C401.025 45.1133 400.806 45.5234 400.496 45.9336C400.186 46.3438 399.708 46.6764 399.061 46.9316C398.423 47.1868 397.661 47.3145 396.777 47.3145C395.137 47.3053 393.551 46.8815 392.02 46.043ZM402.943 40.6699C402.943 38.8197 403.504 37.2611 404.625 35.9941C405.755 34.7272 407.077 34.0938 408.59 34.0938C409.146 34.0938 409.674 34.1849 410.176 34.3672C410.686 34.5404 411.197 34.832 411.707 35.2422C412.227 35.6523 412.655 36.2676 412.992 37.0879C413.329 37.9082 413.525 38.888 413.58 40.0273V40.834H404.898C404.953 42.2376 405.382 43.3815 406.184 44.2656C406.986 45.1406 407.938 45.5781 409.041 45.5781C410.463 45.5781 411.88 45.0632 413.293 44.0332L413.471 45.8789C412.049 46.8268 410.572 47.3053 409.041 47.3145C407.264 47.3145 405.801 46.6582 404.652 45.3457C403.513 44.0241 402.943 42.4655 402.943 40.6699ZM405.035 39.3027H411.98C411.871 38.5736 411.671 37.9583 411.379 37.457C411.087 36.9466 410.759 36.5866 410.395 36.377C410.03 36.1582 409.702 36.0124 409.41 35.9395C409.128 35.8665 408.854 35.8301 408.59 35.8301C407.642 35.8301 406.858 36.1947 406.238 36.9238C405.618 37.653 405.217 38.446 405.035 39.3027ZM414.934 36.1855V34.5449H417.34V31.0176H419.295V34.5449H423.246V36.1855H419.295V43.0762C419.295 44.6986 419.801 45.5098 420.812 45.5098C421.596 45.5098 422.417 45.2044 423.273 44.5938L423.725 46.248C422.403 46.959 421.022 47.3145 419.582 47.3145C418.051 47.3145 417.285 46.1159 417.285 43.7188V36.1855H414.934ZM435.947 30.4844V27.9824H438.463V30.4844H435.947ZM436.139 47V34.5449H438.23V47H436.139ZM442.811 47V34.3945H444.848V36.3633C445.932 34.9596 447.295 34.2578 448.936 34.2578C449.628 34.2578 450.221 34.3626 450.713 34.5723C451.214 34.7728 451.592 35.0234 451.848 35.3242C452.112 35.625 452.312 36.0033 452.449 36.459C452.595 36.9147 452.686 37.3203 452.723 37.6758C452.759 38.0312 452.777 38.4505 452.777 38.9336V47H450.59V39.1387C450.59 38.8197 450.585 38.569 450.576 38.3867C450.567 38.1953 450.512 37.9264 450.412 37.5801C450.312 37.2337 450.171 36.9603 449.988 36.7598C449.815 36.5501 449.546 36.3678 449.182 36.2129C448.817 36.0488 448.37 35.9668 447.842 35.9668C446.848 35.9668 446.124 36.3861 445.668 37.2246C445.221 38.0632 444.998 39.0794 444.998 40.2734V47H442.811ZM456.018 40.8066C456.018 38.9564 456.501 37.3978 457.467 36.1309C458.442 34.8639 459.618 34.2305 460.994 34.2305C462.416 34.2305 463.77 34.7454 465.055 35.7754V26.7793H467.188V47H464.973V45.5508C463.76 46.7266 462.38 47.3145 460.83 47.3145C459.445 47.3145 458.296 46.6628 457.385 45.3594C456.473 44.056 456.018 42.5384 456.018 40.8066ZM458.191 40.7793C458.191 42.4382 458.583 43.6549 459.367 44.4297C460.151 45.1953 461.021 45.5781 461.979 45.5781C462.762 45.5781 463.455 45.3138 464.057 44.7852C464.667 44.2474 464.973 43.737 464.973 43.2539V37.8945C464.973 37.5391 464.777 37.179 464.385 36.8145C463.783 36.2585 463.09 35.9759 462.307 35.9668H462.252C461.805 35.9668 461.363 36.0534 460.926 36.2266C460.488 36.3906 460.055 36.6458 459.627 36.9922C459.199 37.3385 458.852 37.8398 458.588 38.4961C458.324 39.1432 458.191 39.9043 458.191 40.7793ZM471.74 43.582V34.5449H473.928V43.9238C473.946 44.5801 474.096 45.0495 474.379 45.332C474.671 45.6055 475.263 45.7422 476.156 45.7422C477.122 45.7422 477.902 45.487 478.494 44.9766C479.087 44.457 479.419 43.86 479.492 43.1855C479.51 43.0033 479.52 42.7344 479.52 42.3789V34.5449H481.707V47H479.574V45.6602C478.307 46.763 476.676 47.3145 474.68 47.3145C474.124 47.3145 473.645 47.2233 473.244 47.041C472.852 46.8678 472.556 46.6673 472.355 46.4395C472.164 46.2116 472.018 45.8971 471.918 45.4961C471.818 45.0951 471.763 44.7806 471.754 44.5527C471.745 44.3158 471.74 43.9922 471.74 43.582ZM484.947 40.752C484.947 39.0202 485.503 37.4798 486.615 36.1309C487.736 34.7728 489.231 34.0938 491.1 34.0938C491.975 34.0938 492.699 34.1803 493.273 34.3535C493.857 34.5176 494.581 34.8411 495.447 35.3242L495.105 37.1699C494.194 36.5957 493.497 36.2402 493.014 36.1035C492.476 35.9577 491.829 35.8848 491.072 35.8848C489.805 35.8848 488.83 36.3678 488.146 37.334C487.463 38.291 487.121 39.4303 487.121 40.752C487.121 42.1374 487.486 43.2767 488.215 44.1699C488.944 45.0632 489.887 45.5098 491.045 45.5098C492.503 45.5098 493.971 45.0085 495.447 44.0059L495.584 45.8789C494.107 46.8268 492.585 47.3053 491.018 47.3145C489.304 47.3145 487.864 46.6764 486.697 45.4004C485.531 44.1152 484.947 42.5658 484.947 40.752ZM496.91 36.1855V34.5449H499.316V31.0176H501.271V34.5449H505.223V36.1855H501.271V43.0762C501.271 44.6986 501.777 45.5098 502.789 45.5098C503.573 45.5098 504.393 45.2044 505.25 44.5938L505.701 46.248C504.38 46.959 502.999 47.3145 501.559 47.3145C500.027 47.3145 499.262 46.1159 499.262 43.7188V36.1855H496.91ZM508.6 30.4844V27.9824H511.115V30.4844H508.6ZM508.791 47V34.5449H510.883V47H508.791ZM514.055 40.8066C514.055 38.9199 514.656 37.3294 515.859 36.0352C517.072 34.7409 518.516 34.0938 520.193 34.0938C521.952 34.0938 523.42 34.7728 524.596 36.1309C525.771 37.4798 526.359 39.0475 526.359 40.834C526.359 42.6842 525.74 44.2292 524.5 45.4688C523.27 46.6992 521.834 47.3145 520.193 47.3145C518.553 47.3145 517.117 46.6947 515.887 45.4551C514.665 44.2064 514.055 42.6569 514.055 40.8066ZM516.242 40.5332C516.242 42.1738 516.639 43.4134 517.432 44.252C518.225 45.0905 519.145 45.5098 520.193 45.5098C521.242 45.5098 522.162 45.0859 522.955 44.2383C523.748 43.3906 524.145 42.1556 524.145 40.5332C524.145 38.9655 523.748 37.7897 522.955 37.0059C522.162 36.222 521.242 35.8301 520.193 35.8301C519.163 35.8301 518.247 36.222 517.445 37.0059C516.643 37.7897 516.242 38.9655 516.242 40.5332ZM529.463 47V34.3945H531.5V36.3633C532.585 34.9596 533.947 34.2578 535.588 34.2578C536.281 34.2578 536.873 34.3626 537.365 34.5723C537.867 34.7728 538.245 35.0234 538.5 35.3242C538.764 35.625 538.965 36.0033 539.102 36.459C539.247 36.9147 539.339 37.3203 539.375 37.6758C539.411 38.0312 539.43 38.4505 539.43 38.9336V47H537.242V39.1387C537.242 38.8197 537.238 38.569 537.229 38.3867C537.219 38.1953 537.165 37.9264 537.064 37.5801C536.964 37.2337 536.823 36.9603 536.641 36.7598C536.467 36.5501 536.199 36.3678 535.834 36.2129C535.469 36.0488 535.023 35.9668 534.494 35.9668C533.501 35.9668 532.776 36.3861 532.32 37.2246C531.874 38.0632 531.65 39.0794 531.65 40.2734V47H529.463Z" fill="black" fill-opacity="0.735"/>
<path d="M178.752 108L186.066 88.5723H188.555L195.842 108H193.258L191.098 102.285H182.99L180.857 108H178.752ZM183.578 100.727H190.51C188.304 94.6198 187.151 91.2201 187.051 90.5273C186.805 91.6667 185.647 95.0664 183.578 100.727ZM198.945 108V87.7793H201.037V108H198.945ZM205.645 108V87.7793H207.736V108H205.645ZM210.908 101.807C210.908 99.9199 211.51 98.3294 212.713 97.0352C213.925 95.7409 215.37 95.0938 217.047 95.0938C218.806 95.0938 220.273 95.7728 221.449 97.1309C222.625 98.4798 223.213 100.048 223.213 101.834C223.213 103.684 222.593 105.229 221.354 106.469C220.123 107.699 218.688 108.314 217.047 108.314C215.406 108.314 213.971 107.695 212.74 106.455C211.519 105.206 210.908 103.657 210.908 101.807ZM213.096 101.533C213.096 103.174 213.492 104.413 214.285 105.252C215.078 106.09 215.999 106.51 217.047 106.51C218.095 106.51 219.016 106.086 219.809 105.238C220.602 104.391 220.998 103.156 220.998 101.533C220.998 99.9655 220.602 98.7897 219.809 98.0059C219.016 97.222 218.095 96.8301 217.047 96.8301C216.017 96.8301 215.101 97.222 214.299 98.0059C213.497 98.7897 213.096 99.9655 213.096 101.533ZM223.678 95.5449H225.77C227.583 101.296 228.59 104.983 228.791 106.605C228.846 105.448 229.839 101.761 231.771 95.5449H233.754L235.791 102.367C236.447 104.719 236.803 106.132 236.857 106.605C236.949 105.694 237.988 102.007 239.975 95.5449H242.012L238.143 108H235.709C234.442 103.798 233.658 101.164 233.357 100.098C233.066 99.0221 232.852 97.9785 232.715 96.9668C232.678 97.9147 231.689 101.592 229.748 108H227.533L223.678 95.5449ZM243.146 107.043L243.488 105.143C243.525 105.161 243.643 105.234 243.844 105.361C244.053 105.48 244.208 105.566 244.309 105.621C244.418 105.676 244.587 105.762 244.814 105.881C245.051 105.99 245.266 106.077 245.457 106.141C245.658 106.204 245.885 106.273 246.141 106.346C246.405 106.419 246.683 106.473 246.975 106.51C247.266 106.537 247.567 106.551 247.877 106.551C248.807 106.551 249.472 106.355 249.873 105.963C250.283 105.562 250.488 105.12 250.488 104.637C250.488 104.172 250.32 103.785 249.982 103.475C249.645 103.165 249.29 102.955 248.916 102.846C248.734 102.791 248.319 102.7 247.672 102.572C247.025 102.436 246.546 102.322 246.236 102.23C245.471 101.984 244.792 101.57 244.199 100.986C243.616 100.394 243.324 99.6602 243.324 98.7852C243.324 98.3568 243.388 97.9512 243.516 97.5684C243.643 97.1855 243.862 96.7936 244.172 96.3926C244.482 95.9915 244.956 95.6771 245.594 95.4492C246.241 95.2122 247.011 95.0938 247.904 95.0938C249.244 95.0938 250.607 95.3809 251.992 95.9551L251.691 97.8145C251.673 97.7962 251.564 97.7461 251.363 97.6641C251.172 97.5729 251.062 97.5182 251.035 97.5C251.008 97.4818 250.903 97.4362 250.721 97.3633C250.548 97.2904 250.424 97.2448 250.352 97.2266C250.288 97.1992 250.174 97.1536 250.01 97.0898C249.846 97.026 249.714 96.9896 249.613 96.9805C249.522 96.9714 249.385 96.944 249.203 96.8984C249.03 96.8529 248.875 96.8255 248.738 96.8164C248.602 96.8073 248.438 96.7982 248.246 96.7891C248.064 96.7799 247.868 96.7754 247.658 96.7754C246.801 96.7754 246.195 96.9486 245.84 97.2949C245.484 97.6413 245.307 98.0378 245.307 98.4844C245.307 99.1042 245.553 99.5508 246.045 99.8242C246.546 100.089 247.243 100.298 248.137 100.453C249.03 100.608 249.663 100.772 250.037 100.945C250.712 101.246 251.286 101.697 251.76 102.299C252.234 102.891 252.471 103.607 252.471 104.445C252.471 104.874 252.407 105.293 252.279 105.703C252.152 106.113 251.933 106.523 251.623 106.934C251.313 107.344 250.835 107.676 250.188 107.932C249.549 108.187 248.788 108.314 247.904 108.314C246.264 108.305 244.678 107.882 243.146 107.043ZM263.189 97.1855V95.5449H265.268V93.4941C265.268 93.4212 265.263 93.3118 265.254 93.166C265.245 93.0111 265.24 92.8971 265.24 92.8242C265.24 91.1107 265.71 89.7936 266.648 88.873C267.596 87.9434 268.695 87.4785 269.943 87.4785C270.636 87.4785 271.374 87.5788 272.158 87.7793V89.666C271.356 89.347 270.6 89.1875 269.889 89.1875C269.251 89.1875 268.654 89.3743 268.098 89.748C267.551 90.1217 267.277 90.7826 267.277 91.7305V95.5449H270.449V97.1855H267.359V108H265.268V97.1855H263.189ZM271.803 101.807C271.803 99.9199 272.404 98.3294 273.607 97.0352C274.82 95.7409 276.264 95.0938 277.941 95.0938C279.701 95.0938 281.168 95.7728 282.344 97.1309C283.52 98.4798 284.107 100.048 284.107 101.834C284.107 103.684 283.488 105.229 282.248 106.469C281.018 107.699 279.582 108.314 277.941 108.314C276.301 108.314 274.865 107.695 273.635 106.455C272.413 105.206 271.803 103.657 271.803 101.807ZM273.99 101.533C273.99 103.174 274.387 104.413 275.18 105.252C275.973 106.09 276.893 106.51 277.941 106.51C278.99 106.51 279.91 106.086 280.703 105.238C281.496 104.391 281.893 103.156 281.893 101.533C281.893 99.9655 281.496 98.7897 280.703 98.0059C279.91 97.222 278.99 96.8301 277.941 96.8301C276.911 96.8301 275.995 97.222 275.193 98.0059C274.391 98.7897 273.99 99.9655 273.99 101.533ZM286.445 108V95.3945H288.4V97.9238C288.628 97.5684 288.897 97.2266 289.207 96.8984C289.526 96.5703 290.064 96.2194 290.82 95.8457C291.577 95.472 292.406 95.276 293.309 95.2578V97.1309C292.826 97.1491 292.338 97.2402 291.846 97.4043C291.363 97.5592 290.852 97.8099 290.314 98.1562C289.786 98.5026 289.357 99.0312 289.029 99.7422C288.701 100.453 288.537 101.283 288.537 102.23V108H286.445ZM303.576 97.1855V95.5449H305.982V92.0176H307.938V95.5449H311.889V97.1855H307.938V104.076C307.938 105.699 308.443 106.51 309.455 106.51C310.239 106.51 311.059 106.204 311.916 105.594L312.367 107.248C311.046 107.959 309.665 108.314 308.225 108.314C306.693 108.314 305.928 107.116 305.928 104.719V97.1855H303.576ZM315.457 108V95.3945H317.412V97.9238C317.64 97.5684 317.909 97.2266 318.219 96.8984C318.538 96.5703 319.076 96.2194 319.832 95.8457C320.589 95.472 321.418 95.276 322.32 95.2578V97.1309C321.837 97.1491 321.35 97.2402 320.857 97.4043C320.374 97.5592 319.864 97.8099 319.326 98.1562C318.798 98.5026 318.369 99.0312 318.041 99.7422C317.713 100.453 317.549 101.283 317.549 102.23V108H315.457ZM323.988 104.842C323.988 104.149 324.248 103.548 324.768 103.037C325.296 102.518 325.984 102.135 326.832 101.889C327.68 101.633 328.509 101.447 329.32 101.328C330.132 101.201 330.947 101.137 331.768 101.137V100.193C331.731 98.9993 331.49 98.138 331.043 97.6094C330.578 97.0534 329.99 96.7754 329.279 96.7754C327.839 96.7754 326.44 97.2493 325.082 98.1973L324.918 96.3242C326.322 95.5039 327.785 95.0938 329.307 95.0938C330.592 95.0938 331.667 95.5176 332.533 96.3652C333.408 97.2129 333.882 98.2428 333.955 99.4551V108H331.836V107.016C331.763 107.089 331.59 107.212 331.316 107.385C331.043 107.549 330.514 107.745 329.73 107.973C328.947 108.201 328.099 108.314 327.188 108.314C326.121 108.314 325.319 107.936 324.781 107.18C324.253 106.423 323.988 105.644 323.988 104.842ZM326.039 104.814C326.039 105.316 326.285 105.735 326.777 106.072C327.27 106.41 327.889 106.578 328.637 106.578C329.439 106.578 330.159 106.41 330.797 106.072C331.444 105.735 331.768 105.165 331.768 104.363V102.6C331.193 102.6 330.605 102.636 330.004 102.709C329.411 102.782 328.796 102.896 328.158 103.051C327.529 103.197 327.019 103.424 326.627 103.734C326.235 104.044 326.039 104.404 326.039 104.814ZM338.453 108V95.3945H340.49V97.3633C341.575 95.9596 342.938 95.2578 344.578 95.2578C345.271 95.2578 345.863 95.3626 346.355 95.5723C346.857 95.7728 347.235 96.0234 347.49 96.3242C347.755 96.625 347.955 97.0033 348.092 97.459C348.238 97.9147 348.329 98.3203 348.365 98.6758C348.402 99.0312 348.42 99.4505 348.42 99.9336V108H346.232V100.139C346.232 99.8197 346.228 99.569 346.219 99.3867C346.21 99.1953 346.155 98.9264 346.055 98.5801C345.954 98.2337 345.813 97.9603 345.631 97.7598C345.458 97.5501 345.189 97.3678 344.824 97.2129C344.46 97.0488 344.013 96.9668 343.484 96.9668C342.491 96.9668 341.766 97.3861 341.311 98.2246C340.864 99.0632 340.641 100.079 340.641 101.273V108H338.453ZM351.428 107.043L351.77 105.143C351.806 105.161 351.924 105.234 352.125 105.361C352.335 105.48 352.49 105.566 352.59 105.621C352.699 105.676 352.868 105.762 353.096 105.881C353.333 105.99 353.547 106.077 353.738 106.141C353.939 106.204 354.167 106.273 354.422 106.346C354.686 106.419 354.964 106.473 355.256 106.51C355.548 106.537 355.848 106.551 356.158 106.551C357.088 106.551 357.753 106.355 358.154 105.963C358.564 105.562 358.77 105.12 358.77 104.637C358.77 104.172 358.601 103.785 358.264 103.475C357.926 103.165 357.571 102.955 357.197 102.846C357.015 102.791 356.6 102.7 355.953 102.572C355.306 102.436 354.827 102.322 354.518 102.23C353.752 101.984 353.073 101.57 352.48 100.986C351.897 100.394 351.605 99.6602 351.605 98.7852C351.605 98.3568 351.669 97.9512 351.797 97.5684C351.924 97.1855 352.143 96.7936 352.453 96.3926C352.763 95.9915 353.237 95.6771 353.875 95.4492C354.522 95.2122 355.292 95.0938 356.186 95.0938C357.525 95.0938 358.888 95.3809 360.273 95.9551L359.973 97.8145C359.954 97.7962 359.845 97.7461 359.645 97.6641C359.453 97.5729 359.344 97.5182 359.316 97.5C359.289 97.4818 359.184 97.4362 359.002 97.3633C358.829 97.2904 358.706 97.2448 358.633 97.2266C358.569 97.1992 358.455 97.1536 358.291 97.0898C358.127 97.026 357.995 96.9896 357.895 96.9805C357.803 96.9714 357.667 96.944 357.484 96.8984C357.311 96.8529 357.156 96.8255 357.02 96.8164C356.883 96.8073 356.719 96.7982 356.527 96.7891C356.345 96.7799 356.149 96.7754 355.939 96.7754C355.083 96.7754 354.477 96.9486 354.121 97.2949C353.766 97.6413 353.588 98.0378 353.588 98.4844C353.588 99.1042 353.834 99.5508 354.326 99.8242C354.827 100.089 355.525 100.298 356.418 100.453C357.311 100.608 357.945 100.772 358.318 100.945C358.993 101.246 359.567 101.697 360.041 102.299C360.515 102.891 360.752 103.607 360.752 104.445C360.752 104.874 360.688 105.293 360.561 105.703C360.433 106.113 360.214 106.523 359.904 106.934C359.594 107.344 359.116 107.676 358.469 107.932C357.831 108.187 357.07 108.314 356.186 108.314C354.545 108.305 352.959 107.882 351.428 107.043ZM362.146 97.1855V95.5449H364.225V92.7695C364.225 90.974 364.617 89.6432 365.4 88.7773C366.184 87.9115 367.041 87.4785 367.971 87.4785C368.399 87.4785 368.951 87.5788 369.625 87.7793V89.6934C368.987 89.3561 368.436 89.1875 367.971 89.1875C367.524 89.1875 367.123 89.3789 366.768 89.7617C366.412 90.1445 366.234 90.8008 366.234 91.7305V95.5449H369.625V97.1855H366.316V108H364.225V97.1855H362.146ZM371.867 90.1035V87.752H374.219V90.1035H371.867ZM371.977 108V95.5449H374.082V108H371.977ZM378.648 108V95.3945H380.686V97.3633C381.77 95.9596 383.133 95.2578 384.773 95.2578C385.466 95.2578 386.059 95.3626 386.551 95.5723C387.052 95.7728 387.43 96.0234 387.686 96.3242C387.95 96.625 388.15 97.0033 388.287 97.459C388.433 97.9147 388.524 98.3203 388.561 98.6758C388.597 99.0312 388.615 99.4505 388.615 99.9336V108H386.428V100.139C386.428 99.8197 386.423 99.569 386.414 99.3867C386.405 99.1953 386.35 98.9264 386.25 98.5801C386.15 98.2337 386.008 97.9603 385.826 97.7598C385.653 97.5501 385.384 97.3678 385.02 97.2129C384.655 97.0488 384.208 96.9668 383.68 96.9668C382.686 96.9668 381.962 97.3861 381.506 98.2246C381.059 99.0632 380.836 100.079 380.836 101.273V108H378.648ZM392.949 91.4844V88.9824H395.465V91.4844H392.949ZM393.141 108V95.5449H395.232V108H393.141ZM398.076 97.1855V95.5449H400.482V92.0176H402.438V95.5449H406.389V97.1855H402.438V104.076C402.438 105.699 402.943 106.51 403.955 106.51C404.739 106.51 405.559 106.204 406.416 105.594L406.867 107.248C405.546 107.959 404.165 108.314 402.725 108.314C401.193 108.314 400.428 107.116 400.428 104.719V97.1855H398.076ZM408.645 101.67C408.645 99.8197 409.205 98.2611 410.326 96.9941C411.456 95.7272 412.778 95.0938 414.291 95.0938C414.847 95.0938 415.376 95.1849 415.877 95.3672C416.387 95.5404 416.898 95.832 417.408 96.2422C417.928 96.6523 418.356 97.2676 418.693 98.0879C419.031 98.9082 419.227 99.888 419.281 101.027V101.834H410.6C410.654 103.238 411.083 104.382 411.885 105.266C412.687 106.141 413.639 106.578 414.742 106.578C416.164 106.578 417.581 106.063 418.994 105.033L419.172 106.879C417.75 107.827 416.273 108.305 414.742 108.314C412.965 108.314 411.502 107.658 410.354 106.346C409.214 105.024 408.645 103.465 408.645 101.67ZM410.736 100.303H417.682C417.572 99.5736 417.372 98.9583 417.08 98.457C416.788 97.9466 416.46 97.5866 416.096 97.377C415.731 97.1582 415.403 97.0124 415.111 96.9395C414.829 96.8665 414.555 96.8301 414.291 96.8301C413.343 96.8301 412.559 97.1947 411.939 97.9238C411.32 98.653 410.919 99.446 410.736 100.303ZM431.531 91.4844V88.9824H434.047V91.4844H431.531ZM431.723 108V95.5449H433.814V108H431.723ZM438.395 108V95.3945H440.432V97.3633C441.516 95.9596 442.879 95.2578 444.52 95.2578C445.212 95.2578 445.805 95.3626 446.297 95.5723C446.798 95.7728 447.176 96.0234 447.432 96.3242C447.696 96.625 447.896 97.0033 448.033 97.459C448.179 97.9147 448.27 98.3203 448.307 98.6758C448.343 99.0312 448.361 99.4505 448.361 99.9336V108H446.174V100.139C446.174 99.8197 446.169 99.569 446.16 99.3867C446.151 99.1953 446.096 98.9264 445.996 98.5801C445.896 98.2337 445.755 97.9603 445.572 97.7598C445.399 97.5501 445.13 97.3678 444.766 97.2129C444.401 97.0488 443.954 96.9668 443.426 96.9668C442.432 96.9668 441.708 97.3861 441.252 98.2246C440.805 99.0632 440.582 100.079 440.582 101.273V108H438.395ZM451.602 101.807C451.602 99.9564 452.085 98.3978 453.051 97.1309C454.026 95.8639 455.202 95.2305 456.578 95.2305C458 95.2305 459.354 95.7454 460.639 96.7754V87.7793H462.771V108H460.557V106.551C459.344 107.727 457.964 108.314 456.414 108.314C455.029 108.314 453.88 107.663 452.969 106.359C452.057 105.056 451.602 103.538 451.602 101.807ZM453.775 101.779C453.775 103.438 454.167 104.655 454.951 105.43C455.735 106.195 456.605 106.578 457.562 106.578C458.346 106.578 459.039 106.314 459.641 105.785C460.251 105.247 460.557 104.737 460.557 104.254V98.8945C460.557 98.5391 460.361 98.179 459.969 97.8145C459.367 97.2585 458.674 96.9759 457.891 96.9668H457.836C457.389 96.9668 456.947 97.0534 456.51 97.2266C456.072 97.3906 455.639 97.6458 455.211 97.9922C454.783 98.3385 454.436 98.8398 454.172 99.4961C453.908 100.143 453.775 100.904 453.775 101.779ZM467.324 104.582V95.5449H469.512V104.924C469.53 105.58 469.68 106.049 469.963 106.332C470.255 106.605 470.847 106.742 471.74 106.742C472.706 106.742 473.486 106.487 474.078 105.977C474.671 105.457 475.003 104.86 475.076 104.186C475.094 104.003 475.104 103.734 475.104 103.379V95.5449H477.291V108H475.158V106.66C473.891 107.763 472.26 108.314 470.264 108.314C469.708 108.314 469.229 108.223 468.828 108.041C468.436 107.868 468.14 107.667 467.939 107.439C467.748 107.212 467.602 106.897 467.502 106.496C467.402 106.095 467.347 105.781 467.338 105.553C467.329 105.316 467.324 104.992 467.324 104.582ZM480.531 101.752C480.531 100.02 481.087 98.4798 482.199 97.1309C483.32 95.7728 484.815 95.0938 486.684 95.0938C487.559 95.0938 488.283 95.1803 488.857 95.3535C489.441 95.5176 490.165 95.8411 491.031 96.3242L490.689 98.1699C489.778 97.5957 489.081 97.2402 488.598 97.1035C488.06 96.9577 487.413 96.8848 486.656 96.8848C485.389 96.8848 484.414 97.3678 483.73 98.334C483.047 99.291 482.705 100.43 482.705 101.752C482.705 103.137 483.07 104.277 483.799 105.17C484.528 106.063 485.471 106.51 486.629 106.51C488.087 106.51 489.555 106.008 491.031 105.006L491.168 106.879C489.691 107.827 488.169 108.305 486.602 108.314C484.888 108.314 483.448 107.676 482.281 106.4C481.115 105.115 480.531 103.566 480.531 101.752ZM492.494 97.1855V95.5449H494.9V92.0176H496.855V95.5449H500.807V97.1855H496.855V104.076C496.855 105.699 497.361 106.51 498.373 106.51C499.157 106.51 499.977 106.204 500.834 105.594L501.285 107.248C499.964 107.959 498.583 108.314 497.143 108.314C495.611 108.314 494.846 107.116 494.846 104.719V97.1855H492.494ZM504.184 91.4844V88.9824H506.699V91.4844H504.184ZM504.375 108V95.5449H506.467V108H504.375ZM509.639 101.807C509.639 99.9199 510.24 98.3294 511.443 97.0352C512.656 95.7409 514.1 95.0938 515.777 95.0938C517.536 95.0938 519.004 95.7728 520.18 97.1309C521.355 98.4798 521.943 100.048 521.943 101.834C521.943 103.684 521.324 105.229 520.084 106.469C518.854 107.699 517.418 108.314 515.777 108.314C514.137 108.314 512.701 107.695 511.471 106.455C510.249 105.206 509.639 103.657 509.639 101.807ZM511.826 101.533C511.826 103.174 512.223 104.413 513.016 105.252C513.809 106.09 514.729 106.51 515.777 106.51C516.826 106.51 517.746 106.086 518.539 105.238C519.332 104.391 519.729 103.156 519.729 101.533C519.729 99.9655 519.332 98.7897 518.539 98.0059C517.746 97.222 516.826 96.8301 515.777 96.8301C514.747 96.8301 513.831 97.222 513.029 98.0059C512.227 98.7897 511.826 99.9655 511.826 101.533ZM525.047 108V95.3945H527.084V97.3633C528.169 95.9596 529.531 95.2578 531.172 95.2578C531.865 95.2578 532.457 95.3626 532.949 95.5723C533.451 95.7728 533.829 96.0234 534.084 96.3242C534.348 96.625 534.549 97.0033 534.686 97.459C534.831 97.9147 534.923 98.3203 534.959 98.6758C534.995 99.0312 535.014 99.4505 535.014 99.9336V108H532.826V100.139C532.826 99.8197 532.822 99.569 532.812 99.3867C532.803 99.1953 532.749 98.9264 532.648 98.5801C532.548 98.2337 532.407 97.9603 532.225 97.7598C532.051 97.5501 531.783 97.3678 531.418 97.2129C531.053 97.0488 530.607 96.9668 530.078 96.9668C529.085 96.9668 528.36 97.3861 527.904 98.2246C527.458 99.0632 527.234 100.079 527.234 101.273V108H525.047ZM547.428 101.807C547.428 99.9199 548.029 98.3294 549.232 97.0352C550.445 95.7409 551.889 95.0938 553.566 95.0938C555.326 95.0938 556.793 95.7728 557.969 97.1309C559.145 98.4798 559.732 100.048 559.732 101.834C559.732 103.684 559.113 105.229 557.873 106.469C556.643 107.699 555.207 108.314 553.566 108.314C551.926 108.314 550.49 107.695 549.26 106.455C548.038 105.206 547.428 103.657 547.428 101.807ZM549.615 101.533C549.615 103.174 550.012 104.413 550.805 105.252C551.598 106.09 552.518 106.51 553.566 106.51C554.615 106.51 555.535 106.086 556.328 105.238C557.121 104.391 557.518 103.156 557.518 101.533C557.518 99.9655 557.121 98.7897 556.328 98.0059C555.535 97.222 554.615 96.8301 553.566 96.8301C552.536 96.8301 551.62 97.222 550.818 98.0059C550.016 98.7897 549.615 99.9655 549.615 101.533ZM562.836 108V95.3945H564.873V97.3633C565.958 95.9596 567.32 95.2578 568.961 95.2578C569.654 95.2578 570.246 95.3626 570.738 95.5723C571.24 95.7728 571.618 96.0234 571.873 96.3242C572.137 96.625 572.338 97.0033 572.475 97.459C572.62 97.9147 572.712 98.3203 572.748 98.6758C572.785 99.0312 572.803 99.4505 572.803 99.9336V108H570.615V100.139C570.615 99.8197 570.611 99.569 570.602 99.3867C570.592 99.1953 570.538 98.9264 570.438 98.5801C570.337 98.2337 570.196 97.9603 570.014 97.7598C569.84 97.5501 569.572 97.3678 569.207 97.2129C568.842 97.0488 568.396 96.9668 567.867 96.9668C566.874 96.9668 566.149 97.3861 565.693 98.2246C565.247 99.0632 565.023 100.079 565.023 101.273V108H562.836ZM585.135 107.043L585.477 105.143C585.513 105.161 585.632 105.234 585.832 105.361C586.042 105.48 586.197 105.566 586.297 105.621C586.406 105.676 586.575 105.762 586.803 105.881C587.04 105.99 587.254 106.077 587.445 106.141C587.646 106.204 587.874 106.273 588.129 106.346C588.393 106.419 588.671 106.473 588.963 106.51C589.255 106.537 589.555 106.551 589.865 106.551C590.795 106.551 591.46 106.355 591.861 105.963C592.271 105.562 592.477 105.12 592.477 104.637C592.477 104.172 592.308 103.785 591.971 103.475C591.633 103.165 591.278 102.955 590.904 102.846C590.722 102.791 590.307 102.7 589.66 102.572C589.013 102.436 588.535 102.322 588.225 102.23C587.459 101.984 586.78 101.57 586.188 100.986C585.604 100.394 585.312 99.6602 585.312 98.7852C585.312 98.3568 585.376 97.9512 585.504 97.5684C585.632 97.1855 585.85 96.7936 586.16 96.3926C586.47 95.9915 586.944 95.6771 587.582 95.4492C588.229 95.2122 588.999 95.0938 589.893 95.0938C591.232 95.0938 592.595 95.3809 593.98 95.9551L593.68 97.8145C593.661 97.7962 593.552 97.7461 593.352 97.6641C593.16 97.5729 593.051 97.5182 593.023 97.5C592.996 97.4818 592.891 97.4362 592.709 97.3633C592.536 97.2904 592.413 97.2448 592.34 97.2266C592.276 97.1992 592.162 97.1536 591.998 97.0898C591.834 97.026 591.702 96.9896 591.602 96.9805C591.51 96.9714 591.374 96.944 591.191 96.8984C591.018 96.8529 590.863 96.8255 590.727 96.8164C590.59 96.8073 590.426 96.7982 590.234 96.7891C590.052 96.7799 589.856 96.7754 589.646 96.7754C588.79 96.7754 588.184 96.9486 587.828 97.2949C587.473 97.6413 587.295 98.0378 587.295 98.4844C587.295 99.1042 587.541 99.5508 588.033 99.8242C588.535 100.089 589.232 100.298 590.125 100.453C591.018 100.608 591.652 100.772 592.025 100.945C592.7 101.246 593.274 101.697 593.748 102.299C594.222 102.891 594.459 103.607 594.459 104.445C594.459 104.874 594.395 105.293 594.268 105.703C594.14 106.113 593.921 106.523 593.611 106.934C593.301 107.344 592.823 107.676 592.176 107.932C591.538 108.187 590.777 108.314 589.893 108.314C588.252 108.305 586.666 107.882 585.135 107.043ZM596.059 101.67C596.059 99.8197 596.619 98.2611 597.74 96.9941C598.87 95.7272 600.192 95.0938 601.705 95.0938C602.261 95.0938 602.79 95.1849 603.291 95.3672C603.801 95.5404 604.312 95.832 604.822 96.2422C605.342 96.6523 605.77 97.2676 606.107 98.0879C606.445 98.9082 606.641 99.888 606.695 101.027V101.834H598.014C598.068 103.238 598.497 104.382 599.299 105.266C600.101 106.141 601.053 106.578 602.156 106.578C603.578 106.578 604.995 106.063 606.408 105.033L606.586 106.879C605.164 107.827 603.688 108.305 602.156 108.314C600.379 108.314 598.916 107.658 597.768 106.346C596.628 105.024 596.059 103.465 596.059 101.67ZM598.15 100.303H605.096C604.986 99.5736 604.786 98.9583 604.494 98.457C604.202 97.9466 603.874 97.5866 603.51 97.377C603.145 97.1582 602.817 97.0124 602.525 96.9395C602.243 96.8665 601.969 96.8301 601.705 96.8301C600.757 96.8301 599.973 97.1947 599.354 97.9238C598.734 98.653 598.333 99.446 598.15 100.303ZM608.049 97.1855V95.5449H610.455V92.0176H612.41V95.5449H616.361V97.1855H612.41V104.076C612.41 105.699 612.916 106.51 613.928 106.51C614.712 106.51 615.532 106.204 616.389 105.594L616.84 107.248C615.518 107.959 614.137 108.314 612.697 108.314C611.166 108.314 610.4 107.116 610.4 104.719V97.1855H608.049ZM618.412 107.043L618.754 105.143C618.79 105.161 618.909 105.234 619.109 105.361C619.319 105.48 619.474 105.566 619.574 105.621C619.684 105.676 619.852 105.762 620.08 105.881C620.317 105.99 620.531 106.077 620.723 106.141C620.923 106.204 621.151 106.273 621.406 106.346C621.671 106.419 621.949 106.473 622.24 106.51C622.532 106.537 622.833 106.551 623.143 106.551C624.072 106.551 624.738 106.355 625.139 105.963C625.549 105.562 625.754 105.12 625.754 104.637C625.754 104.172 625.585 103.785 625.248 103.475C624.911 103.165 624.555 102.955 624.182 102.846C623.999 102.791 623.585 102.7 622.938 102.572C622.29 102.436 621.812 102.322 621.502 102.23C620.736 101.984 620.057 101.57 619.465 100.986C618.882 100.394 618.59 99.6602 618.59 98.7852C618.59 98.3568 618.654 97.9512 618.781 97.5684C618.909 97.1855 619.128 96.7936 619.438 96.3926C619.747 95.9915 620.221 95.6771 620.859 95.4492C621.507 95.2122 622.277 95.0938 623.17 95.0938C624.51 95.0938 625.872 95.3809 627.258 95.9551L626.957 97.8145C626.939 97.7962 626.829 97.7461 626.629 97.6641C626.438 97.5729 626.328 97.5182 626.301 97.5C626.273 97.4818 626.169 97.4362 625.986 97.3633C625.813 97.2904 625.69 97.2448 625.617 97.2266C625.553 97.1992 625.439 97.1536 625.275 97.0898C625.111 97.026 624.979 96.9896 624.879 96.9805C624.788 96.9714 624.651 96.944 624.469 96.8984C624.296 96.8529 624.141 96.8255 624.004 96.8164C623.867 96.8073 623.703 96.7982 623.512 96.7891C623.329 96.7799 623.133 96.7754 622.924 96.7754C622.067 96.7754 621.461 96.9486 621.105 97.2949C620.75 97.6413 620.572 98.0378 620.572 98.4844C620.572 99.1042 620.818 99.5508 621.311 99.8242C621.812 100.089 622.509 100.298 623.402 100.453C624.296 100.608 624.929 100.772 625.303 100.945C625.977 101.246 626.551 101.697 627.025 102.299C627.499 102.891 627.736 103.607 627.736 104.445C627.736 104.874 627.673 105.293 627.545 105.703C627.417 106.113 627.199 106.523 626.889 106.934C626.579 107.344 626.1 107.676 625.453 107.932C624.815 108.187 624.054 108.314 623.17 108.314C621.529 108.305 619.943 107.882 618.412 107.043Z" fill="black" fill-opacity="0.735"/>
</svg>
